<svg viewBox="0 0 16 20" xmlns="http://www.w3.org/2000/svg" fill-rule="evenodd" clip-rule="evenodd" stroke-linejoin="round" stroke-miterlimit="1.414"><path d="M11.092 10.395l1.685 1.505-.799.895-3.36-3 3.36-3 .799.895-1.685 1.505h4.526v1.2h-4.526z" fill="#fff"/><path d="M7.118 17.948l.101-3.264c.019-.649-.513-1.195-1.186-1.215l-1.645-.051-.064-.255c-.207-.814-.489-1.929-.442-3.425.046-1.5.397-2.597.653-3.398l.077-.245 1.103.035.543.016c.674.021 1.238-.491 1.259-1.14l.101-3.265C7.637 1.092 7.105.546 6.431.526L5.509.5l-.001.025a3.788 3.788 0 0 0-1.919.741C1.538 2.775.646 5.2.51 9.631c-.189 6.126 2.442 8.446 2.557 8.545.253.212.526.388.835.536.333.158.686.267 1.035.32v.019l.923.039c.673.02 1.237-.492 1.258-1.142z" fill="none" stroke="#fff"/></svg>