<?xml version="1.0" encoding="UTF-8" standalone="no"?><!DOCTYPE svg PUBLIC "-//W3C//DTD SVG 1.1//EN" "http://www.w3.org/Graphics/SVG/1.1/DTD/svg11.dtd"><svg width="100%" height="100%" viewBox="0 0 16 20" version="1.1" xmlns="http://www.w3.org/2000/svg" xmlns:xlink="http://www.w3.org/1999/xlink" xml:space="preserve" xmlns:serif="http://www.serif.com/" style="fill-rule:evenodd;clip-rule:evenodd;stroke-linejoin:round;stroke-miterlimit:1.41421;"><g><path d="M11.092,10.395l1.685,1.505l-0.799,0.895l-3.36,-3l3.36,-3l0.799,0.895l-1.685,1.505l4.526,0l0,1.2l-4.526,0Z" style="fill:#fff;"/><path d="M7.118,17.948l0.101,-3.264c0.019,-0.649 -0.513,-1.195 -1.186,-1.215l-1.645,-0.051c-0.021,-0.081 -0.042,-0.166 -0.064,-0.255c-0.207,-0.814 -0.489,-1.929 -0.442,-3.425c0.046,-1.5 0.397,-2.597 0.653,-3.398c0.027,-0.085 0.053,-0.167 0.077,-0.245l1.103,0.035l0.543,0.016c0.674,0.021 1.238,-0.491 1.259,-1.14l0.101,-3.265c0.019,-0.649 -0.513,-1.195 -1.187,-1.215l-0.922,-0.026l-0.001,0.025c-0.353,0.032 -0.711,0.119 -1.057,0.257c-0.326,0.135 -0.608,0.294 -0.862,0.484c-2.051,1.509 -2.943,3.934 -3.079,8.365c-0.189,6.126 2.442,8.446 2.557,8.545c0.253,0.212 0.526,0.388 0.835,0.536c0.333,0.158 0.686,0.267 1.035,0.32l0,0.019l0.923,0.039c0.673,0.02 1.237,-0.492 1.258,-1.142Z" style="fill:none;stroke:#fff;stroke-width:1px;"/></g></svg>